#!OML:ASF F:\VICON\USERDATA\INSTALL\rory3\rory3.ASF
:FULLY-SPECIFIED
:DEGREES
2757
root 2.0292 13.8766 8.66672 -362.958 -3.32321 356.269
lowerback 16.1255 3.78861 -1.55564
upperback -1.12279 5.03817 2.80536
thorax -10.7027 2.57931 2.66723
lowerneck -12.22 -7.41408 -4.88018
upperneck 19.4272 -10.1992 4.42714
head 8.54482 -4.74223 1.13479
rclavicle 1.46169e-014 8.34896e-015
rhumerus -10.3684 13.2803 -91.2537
rradius 77.0039
rwrist -43.2028
rhand -15.5181 20.4612
rfingers 7.12502
rthumb 10.665 -9.2481
lclavicle 1.46169e-014 8.34896e-015
lhumerus 6.79018 -43.4514 72.8702
lradius 111.23
lwrist -17.1597
lhand -13.3165 12.6518
lfingers 7.12502
lthumb 12.7881 42.2401
rfemur 10.7398 -9.80328 7.72625
rtibia 41.0176
rfoot -36.9556 -10.8165
rtoes -39.1521
lfemur -47.7404 8.60914 -9.86024
ltibia 75.5643
lfoot -19.4046 -13.6977
ltoes -11.5006
2758
root 2.0485 13.8688 8.68651 -362.935 -3.43831 356.073
lowerback 16.2695 3.85559 -1.36764
upperback -1.17018 5.17202 2.86672
thorax -10.8369 2.63419 2.58437
lowerneck -12.1867 -7.42679 -4.75382
upperneck 19.2967 -10.1966 4.24504
head 8.47717 -4.75277 1.05842
rclavicle -2.38852e-014 2.98177e-015
rhumerus -10.0882 13.2233 -91.0187
rradius 76.6131
rwrist -43.1894
rhand -15.6013 21.2148
rfingers 7.12502
rthumb 10.5847 -8.49862
lclavicle -2.38852e-014 2.98177e-015
lhumerus 6.47919 -43.5888 73.247
lradius 111.313
lwrist -16.7833
lhand -12.7411 12.6798
lfingers 7.12502
lthumb 13.3428 42.2326
rfemur 10.8554 -9.6736 7.89977
rtibia 40.7542
rfoot -37.0548 -10.9884
rtoes -39.5107
lfemur -47.7826 8.87286 -9.70477
ltibia 75.7813
lfoot -19.5316 -13.8452
ltoes -11.5934
2759
root 2.06641 13.8745 8.70628 -362.762 -3.18607 356.031
lowerback 16.1061 3.82226 -1.32364
upperback -1.16707 5.13937 2.89494
thorax -10.7358 2.61786 2.60789
lowerneck -12.0999 -7.48665 -4.94434
upperneck 19.1693 -10.2831 4.46109
head 8.4457 -4.7891 1.15385
rclavicle -1.56419e-014 -1.11319e-014
rhumerus -9.69312 12.9458 -90.828
rradius 76.2068
rwrist -42.9582
rhand -15.6491 20.5823
rfingers 7.12502
rthumb 10.5387 -9.13352
lclavicle -1.56419e-014 -1.11319e-014
lhumerus 6.53679 -44.0158 73.3786
lradius 111.507
lwrist -17.1788
lhand -12.7748 14.4688
lfingers 7.12502
lthumb 13.3103 44.0237
rfemur 10.9276 -9.8632 7.91916
rtibia 40.5153
rfoot -36.5745 -11.6262
rtoes -39.7495
lfemur -48.0294 8.71908 -9.8291
ltibia 75.8941
lfoot -19.6217 -13.8066
ltoes -11.9061
2760
root 2.07866 13.8696 8.71701 -362.776 -3.25222 355.728
lowerback 16.2114 3.87446 -1.10227
upperback -1.07835 5.26056 3.00109
thorax -10.6958 2.66491 2.56392
lowerneck -12.3473 -7.60643 -4.85777
upperneck 19.2321 -10.4288 4.31621
head 8.50583 -4.85959 1.06438
rclavicle -5.47279e-015 -3.97569e-016
rhumerus -9.42926 12.8755 -90.5446
rradius 75.9957
rwrist -42.6608
rhand -15.6459 20.7882
rfingers 7.12502
rthumb 10.5418 -8.92748
lclavicle -5.47279e-015 -3.97569e-016
lhumerus 6.56184 -44.0737 73.5083
lradius 111.395
lwrist -17.3026
lhand -12.8172 13.948
lfingers 7.12502
lthumb 13.2694 43.5056
rfemur 10.9461 -9.73152 8.32833
rtibia 40.4062
rfoot -36.229 -12.9815
rtoes -42.1247
lfemur -48.0863 8.90838 -9.50907
ltibia 76.0652
lfoot -19.6005 -14.1052
ltoes -11.107
2761
root 2.09431 13.8638 8.73393 -362.707 -3.15932 355.717
lowerback 16.3209 3.93264 -1.13133
upperback -1.15285 5.33306 2.97914
thorax -10.8475 2.70044 2.52934
lowerneck -12.5902 -7.60063 -4.79086
upperneck 19.5605 -10.4438 4.31365
head 8.65799 -4.85148 1.03705
rclavicle -6.26172e-014 -3.57812e-015
rhumerus -9.26974 12.4858 -90.4045
rradius 75.685
rwrist -42.732
rhand -15.5191 20.3795
rfingers 7.12502
rthumb 10.6641 -9.32986
lclavicle -6.26172e-014 -3.57812e-015
lhumerus 6.28322 -44.437 73.7892
lradius 111.328
lwrist -17.2575
lhand -13.163 13.3256
lfingers 7.12502
lthumb 12.9361 42.9046
rfemur 11.0368 -9.72863 8.31657
rtibia 40.2634
rfoot -36.2484 -12.8436
rtoes -41.8934
lfemur -48.2391 8.80392 -9.59713
ltibia 76.1826
lfoot -19.5993 -14.0717
ltoes -10.7972
2762
root 2.11495 13.8685 8.75809 -362.585 -2.95679 355.528
lowerback 16.1701 3.84915 -0.932237
upperback -1.12571 5.26594 3.04116
thorax -10.7134 2.65981 2.51166
lowerneck -12.0967 -7.59527 -4.9971
upperneck 19.0828 -10.4514 4.62059
head 8.43682 -4.85726 1.19532
rclavicle -4.09372e-014 -2.42517e-014
rhumerus -8.89798 12.4338 -90.2747
rradius 75.3854
rwrist -42.5891
rhand -16.0392 20.2804
rfingers 7.12502
rthumb 10.1623 -9.45416
lclavicle -4.09372e-014 -2.42517e-014
lhumerus 6.53354 -44.7865 73.7
lradius 111.332
lwrist -17.2103
lhand -13.0138 14.3504
lfingers 7.12502
lthumb 13.0799 43.9202
rfemur 11.3021 -9.94469 8.38795
rtibia 39.8523
rfoot -36.1031 -12.858
rtoes -42.0475
lfemur -48.4123 8.58667 -9.52093
ltibia 76.3583
lfoot -19.7568 -13.9823
ltoes -11.1068
2763
root 2.13095 13.8546 8.7613 -362.696 -3.20952 355.314
lowerback 16.4052 3.96331 -0.691189
upperback -1.04201 5.46737 3.07865
thorax -10.7483 2.7405 2.35318
lowerneck -12.1684 -7.60995 -4.96738
upperneck 19.1901 -10.4692 4.56815
head 8.4822 -4.86521 1.16703
rclavicle -9.31803e-015 3.97569e-016
rhumerus -8.45921 12.089 -90.1126
rradius 75.0438
rwrist -42.7998
rhand -16.2333 20.504
rfingers 7.12502
rthumb 9.97509 -9.23963
lclavicle -9.31803e-015 3.97569e-016
lhumerus 6.58913 -44.9797 73.6523
lradius 111.171
lwrist -17.3413
lhand -13.6664 13.7738
lfingers 7.12502
lthumb 12.4507 43.383
rfemur 11.2938 -9.76657 8.54109
rtibia 39.9365
rfoot -35.989 -13.0275
rtoes -42.3399
lfemur -48.3651 8.80065 -9.29891
ltibia 76.618
lfoot -19.9125 -13.8986
ltoes -11.3284
2764
root 2.1407 13.844 8.76823 -362.49 -2.8384 355.37
lowerback 16.218 3.91308 -0.816379
upperback -0.942689 5.37518 3.11807
thorax -10.5405 2.70585 2.50379
lowerneck -12.3853 -7.68591 -5.02738
upperneck 19.0622 -10.5441 4.56703
head 8.48547 -4.90178 1.16012
rclavicle -5.11871e-014 -3.33958e-014
rhumerus -7.92232 11.9688 -89.8284
rradius 74.8047
rwrist -42.716
rhand -16.377 20.4247
rfingers 7.12502
rthumb 9.83646 -9.3255
lclavicle -5.11871e-014 -3.33958e-014
lhumerus 7.02692 -44.525 73.6965
lradius 110.759
lwrist -16.7029
lhand -13.4218 11.6667
lfingers 7.12502
lthumb 12.6866 41.2613
rfemur 11.178 -10.1746 8.37271
rtibia 40.1029
rfoot -35.9288 -13.1618
rtoes -42.3656
lfemur -48.831 8.51768 -9.51457
ltibia 76.7702
lfoot -19.832 -13.8788
ltoes -11.5488
2765
root 2.15052 13.8425 8.77773 -362.618 -2.95864 355.218
lowerback 16.54 4.00328 -0.752358
upperback -0.854531 5.51305 3.17837
thorax -10.636 2.76719 2.48139
lowerneck -12.5194 -7.69572 -4.97401
upperneck 18.9938 -10.5438 4.50033
head 8.47958 -4.90255 1.12566
rclavicle -1.86361e-015 -6.95746e-015
rhumerus -7.68777 11.6054 -89.6441
rradius 74.7566
rwrist -42.7006
rhand -16.3219 20.2097
rfingers 7.12502
rthumb 9.88961 -9.538
lclavicle -1.86361e-015 -6.95746e-015
lhumerus 6.8535 -45.2773 73.7093
lradius 111.27
lwrist -17.0639
lhand -13.1556 14.2691
lfingers 7.12502
lthumb 12.9432 43.8476
rfemur 11.2679 -10.0978 8.48596
rtibia 40.13
rfoot -35.9046 -13.2724
rtoes -42.7684
lfemur -48.6639 8.63946 -9.32794
ltibia 76.8372
lfoot -19.9162 -13.9646
ltoes -11.2558
2766
root 2.16406 13.836 8.78632 -362.471 -2.94752 355.349
lowerback 16.4244 4.10196 -0.901865
upperback -0.854032 5.60989 3.13612
thorax -10.5854 2.82074 2.50062
lowerneck -12.3791 -7.76058 -4.99041
upperneck 18.8894 -10.6402 4.55044
head 8.4279 -4.94855 1.13983
rclavicle -4.55962e-015 1.8487e-014
rhumerus -7.51347 11.1793 -89.4537
rradius 74.6811
rwrist -42.7325
rhand -16.0301 20.0269
rfingers 7.12502
rthumb 10.1711 -9.70727
lclavicle -4.55962e-015 1.8487e-014
lhumerus 7.37198 -44.1066 73.885
lradius 110.171
lwrist -15.7826
lhand -12.6797 8.36886
lfingers 7.12502
lthumb 13.402 37.9178
rfemur 11.1398 -10.2875 8.16963
rtibia 40.1971
rfoot -35.5398 -13.3805
rtoes -42.3011
lfemur -48.8495 8.60353 -9.56815
ltibia 76.982
lfoot -19.9418 -13.9288
ltoes -10.8385
2767
root 2.17268 13.8262 8.78955 -362.556 -2.77105 355.341
lowerback 16.5469 4.11122 -0.873083
upperback -0.753267 5.62477 3.13874
thorax -10.5414 2.82465 2.47884
lowerneck -12.1702 -7.77466 -5.08797
upperneck 18.6436 -10.6707 4.7285
head 8.32531 -4.96049 1.2214
rclavicle 2.02139e-014 2.70347e-014
rhumerus -7.13421 11.1214 -89.145
rradius 74.5812
rwrist -42.6243
rhand -16.3605 20.2155
rfingers 7.12502
rthumb 9.85238 -9.534
lclavicle 2.02139e-014 2.70347e-014
lhumerus 7.54607 -44.3845 73.9071
lradius 109.979
lwrist -15.8695
lhand -13.5749 8.27643
lfingers 7.12502
lthumb 12.5389 37.8802
rfemur 11.3396 -10.542 7.99255
rtibia 40.2271
rfoot -35.5483 -13.2237
rtoes -42.3062
lfemur -48.8861 8.40543 -9.6184
ltibia 77.1087
lfoot -20.0581 -13.8246
ltoes -11.3743
